<?xml version="1.0" encoding="UTF-8"?><svg xmlns="http://www.w3.org/2000/svg" viewBox="0 0 476 638"><defs><style>.cls-1,.cls-2,.cls-3{stroke-miterlimit:10;}.cls-1,.cls-2,.cls-3,.cls-4,.cls-5,.cls-6,.cls-7{stroke-width:.2px;}.cls-1,.cls-8,.cls-4,.cls-9,.cls-5,.cls-6,.cls-7{fill:none;}.cls-1,.cls-3,.cls-9,.cls-5{stroke:#1d1d1b;}.cls-10,.cls-2{fill:#f8f7f5;}.cls-2{stroke:#f8f7f5;}.cls-11{fill:#1d1d1b;}.cls-8{stroke:#000;}.cls-8,.cls-4,.cls-9,.cls-5,.cls-6,.cls-7{stroke-linecap:round;stroke-linejoin:round;}.cls-8,.cls-9{stroke-width:.2px;}.cls-12{fill:#fff;font-family:BaselGrotesk-Book, 'Basel Grotesk';font-size:6px;}.cls-3{fill:#f8f7f3;}.cls-4{stroke-dasharray:2.01 2.01;}.cls-4,.cls-6,.cls-7{stroke:#a8a69d;}.cls-13{fill:#f8f7f6;}.cls-7{stroke-dasharray:2.05 2.05;}</style></defs><g id="piante"><line class="cls-6" x1="257.56" y1="306.72" x2="257.56" y2="364.21"/><line class="cls-6" x1="257.56" y1="301.07" x2="257.56" y2="184.84"/><line class="cls-6" x1="247.21" y1="401.47" x2="291.93" y2="401.47"/><line class="cls-6" x1="247.21" y1="411.46" x2="291.93" y2="411.46"/><line class="cls-6" x1="276.99" y1="420.79" x2="291.93" y2="420.79"/><line class="cls-6" x1="247.21" y1="420.79" x2="276.99" y2="420.79"/><line class="cls-6" x1="262.05" y1="430.6" x2="291.93" y2="430.6"/><line class="cls-6" x1="247.21" y1="430.6" x2="262.05" y2="430.6"/><line class="cls-6" x1="247.21" y1="440.11" x2="291.93" y2="440.11"/><line class="cls-6" x1="247.21" y1="468.82" x2="247.21" y2="401.47"/><line class="cls-6" x1="291.93" y1="468.82" x2="291.93" y2="401.47"/><line class="cls-6" x1="247.21" y1="449.62" x2="291.93" y2="449.62"/><line class="cls-6" x1="247.21" y1="459.37" x2="291.93" y2="459.37"/><line class="cls-6" x1="247.21" y1="468.82" x2="291.93" y2="468.82"/><line class="cls-6" x1="269.57" y1="425.78" x2="269.57" y2="468.82"/><line class="cls-6" x1="269.57" y1="468.82" x2="291.93" y2="459.37"/><line class="cls-6" x1="269.57" y1="468.82" x2="247.21" y2="459.37"/><line class="cls-6" x1="291.93" y1="411.46" x2="247.21" y2="440.11"/><polygon class="cls-2" points="354.29 449.02 371.81 449.02 371.81 112.49 300.48 112.49 300.48 121.09 354.29 121.09 354.29 301.07 257.56 301.07 257.56 306.72 354.29 306.72 354.29 400.5 347.61 400.5 347.61 406.24 354.29 406.24 354.29 438.42 354.29 449.02"/><line class="cls-6" x1="257.56" y1="364.21" x2="354.29" y2="364.21"/><line class="cls-6" x1="257.56" y1="184.84" x2="354.29" y2="184.84"/><line class="cls-6" x1="303.42" y1="184.84" x2="303.42" y2="301.07"/><line class="cls-6" x1="350.74" y1="184.84" x2="350.74" y2="301.07"/><path class="cls-6" d="M257.56,244.49c-.33,0-.67,0-1,.01"/><path class="cls-4" d="M254.55,244.59c-23.36,1.54-41.86,20.89-42.04,44.6"/><path class="cls-6" d="M212.51,290.2c0,.33.01.67.03,1"/><line class="cls-6" x1="257.56" y1="291.2" x2="256.56" y2="291.2"/><line class="cls-7" x1="254.51" y1="291.2" x2="214.57" y2="291.2"/><line class="cls-6" x1="213.54" y1="291.2" x2="212.54" y2="291.2"/><line class="cls-6" x1="175.34" y1="116.79" x2="300.48" y2="116.79"/><polygon class="cls-2" points="175.34 121.09 175.34 112.49 104.19 112.49 104.19 449.02 121.35 449.02 121.35 364.63 144.1 364.63 144.1 218.36 121.35 218.36 121.35 121.09 175.34 121.09"/><polyline class="cls-6" points="144.1 313.59 144.1 360.62 169.92 360.62 169.92 313.59 144.1 313.59"/><line class="cls-6" x1="163.96" y1="313.59" x2="163.96" y2="360.62"/><line class="cls-6" x1="158" y1="313.59" x2="158" y2="360.62"/><line class="cls-6" x1="151.99" y1="313.59" x2="151.99" y2="360.62"/><line class="cls-6" x1="146.03" y1="313.59" x2="146.03" y2="360.62"/><polyline class="cls-6" points="144.1 222.38 144.1 269.41 169.92 269.41 169.92 222.38 144.1 222.38"/><line class="cls-6" x1="163.96" y1="222.38" x2="163.96" y2="269.41"/><line class="cls-6" x1="158" y1="222.38" x2="158" y2="269.41"/><line class="cls-6" x1="151.99" y1="222.38" x2="151.99" y2="269.41"/><line class="cls-6" x1="146.03" y1="222.38" x2="146.03" y2="269.41"/></g><g id="prodotti"><path class="cls-10" d="M169.71,278.74c7.07,0,12.79,5.72,12.79,12.79s-5.72,12.79-12.79,12.79-12.79-5.73-12.79-12.79c0-3.29,1.24-6.3,3.31-8.57l.37.38c-1.95,2.17-3.14,5.04-3.14,8.19,0,6.76,5.49,12.25,12.25,12.25s12.25-5.49,12.25-12.25-5.48-12.25-12.25-12.25c-2.99,0-5.72,1.07-7.85,2.85l-.38-.39c2.22-1.87,5.09-3,8.23-3Z"/><path class="cls-10" d="M169.71,279.28c6.77,0,12.25,5.48,12.25,12.25s-5.48,12.25-12.25,12.25-12.25-5.49-12.25-12.25c0-3.15,1.19-6.02,3.14-8.19l3.94,4.07h.01s.86.9.86.9c.33.35.88.36,1.23.03.35-.34.36-.89.03-1.24l-.87-.89-3.94-4.08c2.13-1.78,4.86-2.85,7.85-2.85ZM171.79,291.53c0-1.15-.93-2.08-2.08-2.08s-2.07.93-2.07,2.08.93,2.07,2.07,2.07,2.08-.93,2.08-2.07Z"/><path class="cls-10" d="M169.71,289.45c1.15,0,2.08.93,2.08,2.08s-.93,2.07-2.08,2.07-2.07-.93-2.07-2.07.93-2.08,2.07-2.08Z"/><path class="cls-10" d="M166.67,287.1c.33.35.32.9-.03,1.24-.35.33-.9.32-1.23-.03l-.86-.89c.33.34.88.35,1.22.02.35-.33.37-.89.03-1.23l.87.89Z"/><path class="cls-10" d="M165.8,286.21c.34.34.32.9-.03,1.23-.34.33-.89.32-1.22-.02h-.01s1.26-1.21,1.26-1.21Z"/><path class="cls-10" d="M161.86,282.13l3.94,4.08-1.26,1.2-3.94-4.07c.39-.43.81-.84,1.26-1.21Z"/><path class="cls-10" d="M161.48,281.74l.38.39c-.45.37-.87.78-1.26,1.21l-.37-.38c.38-.43.8-.84,1.25-1.22Z"/><path class="cls-10" d="M159.71,279.91l1.77,1.83c-.45.38-.87.79-1.25,1.22l-1.76-1.82c.52-.28.96-.71,1.24-1.23Z"/><path class="cls-10" d="M160.11,278.4c0,.55-.14,1.07-.4,1.51l-2.07-2.14c-.33-.35-.88-.36-1.23-.03s-.36.89-.03,1.24l2.09,2.16c-.44.23-.94.36-1.46.36-1.71,0-3.1-1.38-3.1-3.1s1.39-3.1,3.1-3.1,3.1,1.39,3.1,3.1Z"/><path class="cls-10" d="M157.64,277.77l2.07,2.14c-.28.52-.72.95-1.24,1.23l-2.09-2.16c-.33-.35-.32-.91.03-1.24s.9-.32,1.23.03Z"/><path class="cls-1" d="M161.48,281.74c2.22-1.87,5.09-3,8.23-3,7.07,0,12.79,5.72,12.79,12.79s-5.72,12.79-12.79,12.79-12.79-5.73-12.79-12.79c0-3.29,1.24-6.3,3.31-8.57"/><path class="cls-1" d="M161.86,282.13c2.13-1.78,4.86-2.85,7.85-2.85,6.77,0,12.25,5.48,12.25,12.25s-5.48,12.25-12.25,12.25-12.25-5.49-12.25-12.25c0-3.15,1.19-6.02,3.14-8.19"/><path class="cls-1" d="M159.71,279.91c.26-.44.4-.96.4-1.51,0-1.71-1.39-3.1-3.1-3.1s-3.1,1.39-3.1,3.1,1.39,3.1,3.1,3.1c.52,0,1.02-.13,1.46-.36"/><path class="cls-1" d="M164.54,287.41l-3.94-4.07-.37-.38-1.76-1.82-2.09-2.16c-.33-.35-.32-.91.03-1.24s.9-.32,1.23.03l2.07,2.14,1.77,1.83.38.39,3.94,4.08.87.89c.33.35.32.9-.03,1.24-.35.33-.9.32-1.23-.03l-.86-.89"/><path class="cls-1" d="M169.71,293.6c1.15,0,2.08-.93,2.08-2.07s-.93-2.08-2.08-2.08-2.07.93-2.07,2.08.93,2.07,2.07,2.07Z"/><path class="cls-1" d="M165.8,286.21c.34.34.32.9-.03,1.23-.34.33-.89.32-1.22-.02h-.01"/><path class="cls-10" d="M169.95,133.02c20.26,0,36.68,16.42,36.68,36.68s-16.42,36.68-36.68,36.68-36.68-16.42-36.68-36.68,16.42-36.68,36.68-36.68ZM204.95,169.7c0-19.33-15.67-35-35-35s-35,15.67-35,35,15.67,35,35,35,35-15.67,35-35Z"/><circle class="cls-10" cx="169.95" cy="169.7" r="35"/><circle class="cls-1" cx="169.95" cy="169.7" r="36.68"/><circle class="cls-1" cx="169.95" cy="169.7" r="35"/><path class="cls-10" d="M214.16,165.37c0,.08,0,.16-.01.24h-.02v-.48h-.91c-.1-.43-.43-.77-.86-.87v-.93c1.02.12,1.8.99,1.8,2.04Z"/><path class="cls-10" d="M214.16,173.88c0,.08,0,.16-.01.24h-.02v-.48h-.91c-.04-.15-.1-.3-.2-.42v-1.17c.68.33,1.14,1.02,1.14,1.83Z"/><path class="cls-10" d="M214.13,165.61h.02c-.09.7-.52,1.29-1.13,1.59v-1.17c.1-.12.16-.27.2-.42h.91Z"/><path class="cls-10" d="M214.13,174.12h.02c-.11.94-.85,1.68-1.79,1.78v-.92c.43-.1.76-.43.86-.86h.91Z"/><path class="cls-10" d="M214.13,173.64v.48h-.91c.01-.08.02-.16.02-.24s-.01-.16-.02-.24h.91Z"/><path class="cls-10" d="M214.13,165.13v.48h-.91c.01-.08.02-.16.02-.24s-.01-.16-.02-.24h.91Z"/><path class="cls-10" d="M213.22,165.13c.01.08.02.16.02.24s-.01.16-.02.24h-.2v-.24h-1.81v.24h-.19c-.01-.08-.02-.16-.02-.24s.01-.16.02-.24h.86v-.87c.08-.01.16-.02.24-.02s.16.01.24.02v.87h.86Z"/><path class="cls-10" d="M213.22,173.64c.01.08.02.16.02.24s-.01.16-.02.24h-.86v.86c-.08.01-.16.02-.24.02s-.16-.01-.24-.02v-.86h-.86c-.01-.08-.02-.16-.02-.24s.01-.16.02-.24h.19v.24h1.81v-.24h.2Z"/><path class="cls-10" d="M213.22,165.13h-.86v-.87c.43.1.76.44.86.87Z"/><path class="cls-10" d="M213.02,165.61h.2c-.04.15-.1.3-.2.42v-.42Z"/><path class="cls-10" d="M213.22,173.64h-.2v-.42c.1.12.16.27.2.42Z"/><path class="cls-10" d="M212.36,174.12h.86c-.1.43-.43.76-.86.86v-.86Z"/><path class="cls-10" d="M213.02,173.64v.24h-1.81v-.24h.67v-.86c.08,0,.16-.02.24-.02s.16.01.24.02v.86h.66Z"/><path class="cls-10" d="M213.02,173.22v.42h-.66v-.86c.27.06.51.22.66.44Z"/><path class="cls-10" d="M213.02,172.05v1.17c-.15-.22-.39-.38-.66-.44v-.91h-.48v.91c-.28.06-.51.23-.67.45v-1.17c.28-.14.59-.22.91-.22s.63.08.9.21Z"/><path class="cls-10" d="M213.02,167.2v4.85c-.27-.13-.58-.21-.9-.21s-.63.08-.91.22v-1.55h.92c.46-.03.81-.42.81-.88s-.36-.84-.82-.87h-.91v-1.56c.28.13.59.21.91.21s.63-.08.9-.21Z"/><path class="cls-10" d="M213.02,166.03v1.17c-.27.13-.58.21-.9.21s-.63-.08-.91-.21v-1.18c.16.22.39.39.67.45v.91h.48v-.91c.27-.06.51-.22.66-.44Z"/><path class="cls-10" d="M213.02,165.61v.42c-.15.22-.39.38-.66.44v-.86h.66Z"/><path class="cls-10" d="M213.02,165.37v.24h-.66v.86c-.08,0-.16.02-.24.02s-.16-.01-.24-.02v-.86h-.67v-.24h1.81Z"/><path class="cls-10" d="M212.36,174.98v.92h-.48v-.92c.08.01.16.02.24.02s.16-.01.24-.02Z"/><path class="cls-10" d="M212.36,171.87v.91c-.08,0-.16-.02-.24-.02s-.16.01-.24.02v-.91h.48Z"/><path class="cls-10" d="M212.36,166.47v.91h-.48v-.91c.08,0,.16.02.24.02s.16-.01.24-.02Z"/><path class="cls-10" d="M212.36,163.35v.91c-.08-.01-.16-.02-.24-.02s-.16.01-.24.02v-.91h.48Z"/><path class="cls-10" d="M212.36,163.33v.02h-.48v.91c-.43.1-.76.44-.86.87h-.92v.48h-.02c-.01-.08-.01-.16-.01-.24,0-1.13.92-2.05,2.05-2.05.08,0,.16,0,.24.01Z"/><path class="cls-10" d="M211.88,175.9h.48c-.08.02-.16.02-.24.02s-.16,0-.24-.02Z"/><path class="cls-10" d="M212.94,169.63c0,.46-.35.85-.81.88h-.92v-1.75h.91c.46.03.82.41.82.87Z"/><path class="cls-10" d="M211.88,174.98v.92c-.94-.1-1.69-.84-1.8-1.78h.94c.1.43.43.76.86.86Z"/><path class="cls-10" d="M211.88,174.12v.86c-.43-.1-.76-.43-.86-.86h.86Z"/><path class="cls-10" d="M211.88,172.78v.86h-.67v-.41c.16-.22.39-.39.67-.45Z"/><path class="cls-10" d="M211.88,165.61v.86c-.28-.06-.51-.23-.67-.45v-.41h.67Z"/><path class="cls-10" d="M211.88,164.26v.87h-.86c.1-.43.43-.77.86-.87Z"/><path class="cls-10" d="M211.21,173.23v.41h-.19c.04-.15.1-.29.19-.41Z"/><path class="cls-10" d="M211.21,172.06v1.17c-.09.12-.15.26-.19.41h-.92v.48h-.02c-.01-.08-.01-.16-.01-.24,0-.8.47-1.5,1.14-1.82Z"/><path class="cls-10" d="M211.21,168.76v1.75h-10.95c-.15,0-.27-.39-.27-.87s.12-.88.27-.88h10.95Z"/><path class="cls-10" d="M211.21,166.02v1.18c-.61-.3-1.04-.9-1.13-1.59h.94c.04.15.1.29.19.41Z"/><path class="cls-10" d="M211.21,165.61v.41c-.09-.12-.15-.26-.19-.41h.19Z"/><path class="cls-10" d="M211.02,165.13c-.01.08-.02.16-.02.24s.01.16.02.24h-.92v-.48h.92Z"/><path class="cls-10" d="M211.02,173.64c-.01.08-.02.16-.02.24s.01.16.02.24h-.92v-.48h.92Z"/><path class="cls-1" d="M213.02,172.05c.68.33,1.14,1.02,1.14,1.83,0,.08,0,.16-.01.24-.11.94-.85,1.68-1.79,1.78-.08.02-.16.02-.24.02s-.16,0-.24-.02c-.94-.1-1.69-.84-1.8-1.78-.01-.08-.01-.16-.01-.24,0-.8.47-1.5,1.14-1.82"/><path class="cls-1" d="M213.02,167.2c.61-.3,1.04-.89,1.13-1.59.01-.08.01-.16.01-.24,0-1.05-.78-1.92-1.8-2.04-.08-.01-.16-.01-.24-.01-1.13,0-2.05.92-2.05,2.05,0,.08,0,.16.01.24.09.69.52,1.29,1.13,1.59"/><polyline class="cls-1" points="213.02 166.03 213.02 167.2 213.02 172.05 213.02 173.22"/><polyline class="cls-1" points="211.21 168.76 211.21 167.2 211.21 166.02"/><polyline class="cls-1" points="211.21 173.23 211.21 172.06 211.21 170.51"/><path class="cls-1" d="M212.36,172.78c.27.06.51.22.66.44.1.12.16.27.2.42"/><path class="cls-1" d="M211.02,173.64c.04-.15.1-.29.19-.41.16-.22.39-.39.67-.45"/><path class="cls-1" d="M211.88,174.98c-.43-.1-.76-.43-.86-.86"/><path class="cls-1" d="M213.22,174.12c-.1.43-.43.76-.86.86"/><polygon class="cls-1" points="214.13 174.12 214.13 173.64 213.22 173.64 213.02 173.64 212.36 173.64 212.36 172.78 212.36 171.87 211.88 171.87 211.88 172.78 211.88 173.64 211.21 173.64 211.02 173.64 210.1 173.64 210.1 174.12 211.02 174.12 211.88 174.12 211.88 174.98 211.88 175.9 212.36 175.9 212.36 174.98 212.36 174.12 213.22 174.12 214.13 174.12"/><path class="cls-1" d="M212.36,166.47c.27-.06.51-.22.66-.44.1-.12.16-.27.2-.42"/><path class="cls-1" d="M211.02,165.61c.04.15.1.29.19.41.16.22.39.39.67.45"/><path class="cls-1" d="M211.88,164.26c-.43.1-.76.44-.86.87"/><path class="cls-1" d="M213.22,165.13c-.1-.43-.43-.77-.86-.87"/><polygon class="cls-1" points="214.13 165.61 213.22 165.61 213.02 165.61 212.36 165.61 212.36 166.47 212.36 167.38 211.88 167.38 211.88 166.47 211.88 165.61 211.21 165.61 211.02 165.61 210.1 165.61 210.1 165.13 211.02 165.13 211.88 165.13 211.88 164.26 211.88 163.35 212.36 163.35 212.36 164.26 212.36 165.13 213.22 165.13 214.13 165.13 214.13 165.61"/><path class="cls-1" d="M211.21,168.76h-10.95c-.15,0-.27.4-.27.88s.12.87.27.87h11.87c.46-.03.81-.42.81-.88s-.36-.84-.82-.87h-.91Z"/><path class="cls-3" d="M169.95,171.95c1.25,0,2.26-1.01,2.26-2.26s-1.01-2.26-2.26-2.26-2.26,1.01-2.26,2.26,1.01,2.26,2.26,2.26"/><path class="cls-10" d="M295.54,322.01c4.41.33,7.88,4,7.88,8.49s-3.81,8.51-8.51,8.51-8.51-3.81-8.51-8.51,3.47-8.16,7.88-8.49v7.48c-.34.2-.57.58-.57,1.01,0,.67.54,1.2,1.2,1.2s1.21-.53,1.21-1.2c0-.43-.23-.81-.58-1.02v-7.47Z"/><polygon class="cls-10" points="296.57 306.72 296.57 307.87 295.54 307.87 294.28 307.87 293.26 307.87 293.26 306.72 296.57 306.72"/><path class="cls-10" d="M295.54,329.48c.35.21.58.59.58,1.02,0,.67-.54,1.2-1.21,1.2s-1.2-.53-1.2-1.2c0-.43.23-.81.57-1.01v.89c0,.35.28.63.63.63s.63-.28.63-.63v-.9Z"/><path class="cls-10" d="M295.54,329.48v.9c0,.35-.28.63-.63.63s-.63-.28-.63-.63v-.89c.18-.12.4-.19.63-.19s.45.06.63.18Z"/><path class="cls-10" d="M295.54,322.01v7.47c-.18-.12-.4-.18-.63-.18s-.45.07-.63.19v-7.48c.21-.01.42-.02.63-.02s.42.01.63.02Z"/><path class="cls-10" d="M295.54,307.87v14.14c-.21-.01-.42-.02-.63-.02s-.42.01-.63.02v-14.14h1.26Z"/><polygon class="cls-10" points="287.36 309.61 287.36 310.22 285.61 310.22 285.61 310.16 285.61 309.67 285.61 309.61 287.36 309.61"/><path class="cls-10" d="M286.51,307.63v.03c0,.35-.11.7-.31.99-.19.27-.28.54-.29.88h-1.02c0-.34-.09-.61-.29-.88-.2-.29-.31-.64-.31-.99v-.87h2.22v.84Z"/><polygon class="cls-10" points="285.61 309.67 285.61 310.16 285.61 310.22 285.19 310.22 285.19 309.61 285.61 309.61 285.61 309.67"/><rect class="cls-10" x="283.44" y="309.61" width="1.75" height=".61"/><path class="cls-10" d="M280.44,306.79v3.73h-1.45v-.57c.14.16.34.27.57.27.42,0,.75-.34.75-.76s-.33-.75-.75-.75c-.23,0-.43.11-.57.27v-2.19h1.45Z"/><path class="cls-10" d="M279.56,308.71c.42,0,.75.34.75.75s-.33.76-.75.76c-.23,0-.43-.11-.57-.27v-.97c.14-.16.34-.27.57-.27Z"/><path class="cls-10" d="M278.99,308.98v.97c-.11-.13-.18-.3-.18-.49,0-.18.07-.35.18-.48Z"/><polyline class="cls-1" points="278.99 308.98 278.99 306.79 280.44 306.79 280.44 310.52 278.99 310.52 278.99 309.95"/><path class="cls-1" d="M280.31,309.46c0-.41-.33-.75-.75-.75-.23,0-.43.11-.57.27-.11.13-.18.3-.18.48,0,.19.07.36.18.49.14.16.34.27.57.27.42,0,.75-.34.75-.76"/><path class="cls-1" d="M285.91,309.53c.01-.34.1-.61.29-.88.2-.29.31-.64.31-.99v-.87h-2.22v.87c0,.35.11.7.31.99.2.27.28.54.29.88"/><polyline class="cls-1" points="285.19 310.22 283.44 310.22 283.44 309.61 285.19 309.61"/><polyline class="cls-1" points="285.61 309.61 287.36 309.61 287.36 310.22 285.61 310.22"/><polygon class="cls-1" points="285.61 310.22 285.19 310.22 285.19 309.61 285.61 309.61 285.61 309.67 285.61 310.16 285.61 310.22"/><path class="cls-1" d="M294.28,322.01c-4.41.33-7.88,4-7.88,8.49s3.81,8.51,8.51,8.51,8.51-3.81,8.51-8.51-3.47-8.16-7.88-8.49"/><path class="cls-1" d="M295.54,329.48c.35.21.58.59.58,1.02,0,.67-.54,1.2-1.21,1.2s-1.2-.53-1.2-1.2c0-.43.23-.81.57-1.01"/><path class="cls-1" d="M294.28,307.87v22.51c0,.35.28.63.63.63s.63-.28.63-.63v-22.51"/><polyline class="cls-5" points="296.57 306.72 296.57 307.87 295.54 307.87 294.28 307.87 293.26 307.87 293.26 306.72 296.57 306.72"/><g id="ARC"><rect class="cls-13" x="144.17" y="288.72" width=".41" height="14.11"/><path class="cls-13" d="M150.46,302.83h-5.88v-14.11h5.88c.65,0,1.18.52,1.18,1.17v11.77c0,.65-.53,1.17-1.18,1.17ZM145.75,302.49h4.72c.45,0,.81-.35.83-.8v-.03s0-11.78,0-11.78c0-.45-.37-.82-.83-.82h-4.72c-.45,0-.82.37-.82.82v9.42s0,2.36,0,2.36c0,.46.37.83.82.83Z"/><path class="cls-13" d="M150.47,302.49h-4.72c-.45,0-.82-.37-.82-.83v-2.36s0-9.42,0-9.42c0-.45.37-.82.82-.82h4.72c.46,0,.83.37.83.82v11.78s0,.03,0,.03c-.02.45-.38.8-.83.8Z"/><line class="cls-8" x1="144.17" y1="302.83" x2="144.17" y2="288.72"/><polyline class="cls-8" points="144.17 288.72 144.58 288.72 150.46 288.72"/><line class="cls-8" x1="151.64" y1="289.89" x2="151.64" y2="301.66"/><polyline class="cls-8" points="150.46 302.83 144.58 302.83 144.17 302.83"/><path class="cls-8" d="M150.46,302.83c.65,0,1.18-.52,1.18-1.17"/><line class="cls-8" x1="144.58" y1="302.83" x2="144.58" y2="288.72"/><line class="cls-8" x1="144.93" y1="301.66" x2="144.93" y2="299.3"/><path class="cls-8" d="M144.93,301.66c0,.46.37.83.82.83"/><line class="cls-8" x1="145.75" y1="302.49" x2="150.47" y2="302.49"/><path class="cls-8" d="M150.47,302.49c.45,0,.81-.35.83-.8"/><polyline class="cls-8" points="151.3 289.88 151.3 301.66 151.3 301.69"/><path class="cls-8" d="M151.3,289.88c0-.45-.37-.82-.83-.82"/><path class="cls-8" d="M151.64,289.89c0-.65-.53-1.17-1.18-1.17"/><line class="cls-8" x1="144.93" y1="289.88" x2="144.93" y2="299.3"/><line class="cls-8" x1="145.75" y1="289.06" x2="150.47" y2="289.06"/><path class="cls-8" d="M145.75,289.06c-.45,0-.82.37-.82.82"/></g><g id="ARC-2"><rect class="cls-13" x="354.07" y="319.44" width=".41" height="14.12"/><path class="cls-13" d="M348.18,319.44h5.89v14.12h-5.89c-.65,0-1.17-.53-1.17-1.18v-11.76c0-.65.52-1.18,1.17-1.18ZM352.9,319.78h-4.72c-.45,0-.81.35-.83.8v.03s0,11.78,0,11.78c0,.45.37.82.83.82h4.72c.45,0,.82-.37.82-.82v-9.42s0-2.36,0-2.36c0-.46-.37-.83-.82-.83Z"/><path class="cls-13" d="M348.18,319.78h4.72c.45,0,.82.37.82.83v2.36s0,9.42,0,9.42c0,.45-.37.82-.82.82h-4.72c-.46,0-.83-.37-.83-.82v-11.78s0-.03,0-.03c.02-.45.38-.8.83-.8Z"/><line class="cls-8" x1="354.48" y1="319.44" x2="354.48" y2="333.56"/><polyline class="cls-8" points="354.48 333.56 354.07 333.56 348.18 333.56"/><line class="cls-8" x1="347.01" y1="332.38" x2="347.01" y2="320.62"/><polyline class="cls-8" points="348.18 319.44 354.07 319.44 354.48 319.44"/><path class="cls-8" d="M348.18,319.44c-.65,0-1.17.53-1.17,1.18"/><line class="cls-8" x1="354.07" y1="319.44" x2="354.07" y2="333.56"/><line class="cls-8" x1="353.72" y1="320.61" x2="353.72" y2="322.97"/><path class="cls-8" d="M353.72,320.61c0-.46-.37-.83-.82-.83"/><line class="cls-8" x1="352.9" y1="319.78" x2="348.18" y2="319.78"/><path class="cls-8" d="M348.18,319.78c-.45,0-.81.35-.83.8"/><polyline class="cls-8" points="347.35 332.39 347.35 320.61 347.35 320.58"/><path class="cls-8" d="M347.35,332.39c0,.45.37.82.83.82"/><path class="cls-8" d="M347.01,332.38c0,.65.52,1.18,1.17,1.18"/><line class="cls-8" x1="353.72" y1="332.39" x2="353.72" y2="322.97"/><line class="cls-8" x1="352.9" y1="333.21" x2="348.18" y2="333.21"/><path class="cls-8" d="M352.9,333.21c.45,0,.82-.37.82-.82"/></g><g id="LINE"><polygon class="cls-13" points="144.5 256.9 144.1 256.9 144.1 236.49 144.5 236.49 144.5 236.51 144.5 256.87 144.5 256.9"/><line class="cls-8" x1="144.1" y1="256.9" x2="144.1" y2="236.49"/><polyline class="cls-8" points="144.1 236.49 144.5 236.49 148.46 236.49"/><line class="cls-8" x1="149.6" y1="237.62" x2="149.6" y2="255.76"/><path class="cls-8" d="M149.6,237.62c0-.62-.51-1.13-1.14-1.13"/><path class="cls-8" d="M148.46,256.9c.63,0,1.14-.51,1.14-1.14"/><polyline class="cls-8" points="148.46 256.9 144.5 256.9 144.1 256.9"/><line class="cls-8" x1="144.5" y1="256.87" x2="144.5" y2="236.51"/></g><rect class="cls-13" x="147" y="308.24" width=".6" height="1.75"/><polygon class="cls-13" points="147.6 307.82 147.6 308.24 147 308.24 147 307.82 147.06 307.82 147.54 307.82 147.6 307.82"/><polygon class="cls-13" points="147.6 306.07 147.6 307.82 147.54 307.82 147.06 307.82 147 307.82 147 306.07 147.6 306.07"/><path class="cls-13" d="M146.92,307.52v1.02c-.34.01-.61.09-.89.29-.29.2-.63.31-.99.31h-.87v-2.22h.87c.36,0,.7.11.99.31.28.19.55.28.89.29Z"/><path class="cls-9" d="M146.92,307.52c-.34-.01-.61-.1-.89-.29-.29-.2-.63-.31-.99-.31h-.87v2.22h.87c.36,0,.7-.11.99-.31.28-.2.55-.28.89-.29"/><line class="cls-9" x1="146.92" y1="308.54" x2="146.92" y2="307.52"/><polyline class="cls-9" points="147.6 308.24 147.6 309.99 147 309.99 147 308.24"/><polyline class="cls-9" points="147 307.82 147 306.07 147.6 306.07 147.6 307.82"/><polygon class="cls-9" points="147.6 307.82 147.6 308.24 147 308.24 147 307.82 147.06 307.82 147.54 307.82 147.6 307.82"/></g><g id="testi"><circle class="cls-11" cx="190.01" cy="285.64" r="5.67"/><text class="cls-12" transform="translate(188.26 287.37)"><tspan x="0" y="0">3</tspan></text><circle class="cls-11" cx="191.01" cy="209.9" r="5.67"/><text class="cls-12" transform="translate(189.31 211.62)"><tspan x="0" y="0">2</tspan></text><circle class="cls-11" cx="223.62" cy="169.62" r="5.67"/><text class="cls-12" transform="translate(222.48 171.35)"><tspan x="0" y="0">1</tspan></text><circle class="cls-11" cx="136.05" cy="246.69" r="5.67"/><text class="cls-12" transform="translate(134.9 248.42)"><tspan x="0" y="0">1</tspan></text><circle class="cls-11" cx="145.54" cy="279.98" r="5.67"/><text class="cls-12" transform="translate(144.4 281.7)"><tspan x="0" y="0">1</tspan></text><circle class="cls-11" cx="272.12" cy="317.3" r="5.67"/><text class="cls-12" transform="translate(270.97 319.02)"><tspan x="0" y="0">1</tspan></text><circle class="cls-11" cx="362.9" cy="319.44" r="5.67"/><text class="cls-12" transform="translate(361.76 321.16)"><tspan x="0" y="0">1</tspan></text></g></svg>